# xmcd
#
# Track frame offsets:
# 150
# 24997
# 49690
# 72690
# 103385
# 134485
# 155770
# 177617
# 186135
# 208745
# 232920
#
# Disc length: 3296 seconds
#
#
# Revision: 2
# Processed by: cddbd v1.4PL0 Copyright (c) Steve Scherf et al.
# Submitted via: FreeRIP 2.30 
#
DISCID=a60cde0b
DTITLE=Bruce Huron - Reverie
DYEAR=2002
DGENRE=Jazz
TTITLE0=Nassau
TTITLE1=Song for Yifei's Arrival
TTITLE2=Autumn's Reverie
TTITLE3=The New Territories
TTITLE4=Long Day's Journey
TTITLE5=Night's Passage
TTITLE6=Monday's Tune
TTITLE7=Chorale
TTITLE8=How Could I Know
TTITLE9=I'll Begin Again
TTITLE10=Tornado de Blanc
EXTD=YEAR: 2002
EXTT0=
EXTT1=
EXTT2=
EXTT3=
EXTT4=
EXTT5=
EXTT6=
EXTT7=
EXTT8=
EXTT9=
EXTT10=
PLAYORDER=
